<svg width="75" height="49" viewBox="0 0 75 49" fill="none" xmlns="http://www.w3.org/2000/svg">
<g clip-path="url(#clip0_0_10595)">
<path d="M22.3965 45.1709C23.9688 45.1709 25.126 44.2676 25.3213 42.8955H24.2324C24.0371 43.6963 23.3291 44.1992 22.3965 44.1992C21.127 44.1992 20.3359 43.1543 20.3359 41.4795C20.3359 39.8047 21.127 38.7549 22.3916 38.7549C23.3193 38.7549 24.0273 39.3115 24.2324 40.1855H25.3213C25.1455 38.7744 23.9443 37.7832 22.3916 37.7832C20.4336 37.7832 19.2178 39.1992 19.2178 41.4795C19.2178 43.7549 20.4385 45.1709 22.3965 45.1709ZM28.2094 45.0879C28.9076 45.0879 29.4887 44.7852 29.8061 44.248H29.8891V45H30.8998V41.3721C30.8998 40.2588 30.1479 39.5947 28.8148 39.5947C27.6088 39.5947 26.7494 40.1758 26.642 41.0693H27.6576C27.7748 40.6836 28.1801 40.4639 28.766 40.4639C29.4838 40.4639 29.8549 40.791 29.8549 41.3721V41.8359L28.4145 41.9238C27.1498 42.002 26.4369 42.5537 26.4369 43.5059C26.4369 44.4727 27.184 45.0879 28.2094 45.0879ZM28.4779 44.2432C27.9066 44.2432 27.4916 43.9551 27.4916 43.4619C27.4916 42.9785 27.8236 42.7197 28.5561 42.6709L29.8549 42.583V43.042C29.8549 43.7256 29.2689 44.2432 28.4779 44.2432ZM32.4939 45H33.5437V41.7432C33.5437 41.0498 34.0271 40.5078 34.6668 40.5078C35.2918 40.5078 35.6922 40.8838 35.6922 41.4893V45H36.7225V41.6455C36.7225 41.0059 37.1668 40.5078 37.8455 40.5078C38.534 40.5078 38.8758 40.8643 38.8758 41.5967V45H39.9256V41.3428C39.9256 40.2393 39.3006 39.5947 38.2264 39.5947C37.4891 39.5947 36.8787 39.9707 36.6102 40.542H36.5271C36.2928 39.9707 35.7898 39.5947 35.0623 39.5947C34.3543 39.5947 33.8172 39.9463 33.5828 40.542H33.5047V39.6973H32.4939V45ZM44.9865 43.5791C44.7912 44.0088 44.3566 44.2432 43.7219 44.2432C42.882 44.2432 42.34 43.6377 42.3059 42.6758V42.627H46.0607V42.2656C46.0607 40.6055 45.1672 39.5947 43.6877 39.5947C42.1887 39.5947 41.2365 40.6738 41.2365 42.3584C41.2365 44.0527 42.1691 45.1025 43.6926 45.1025C44.9084 45.1025 45.7678 44.5166 45.9973 43.5791H44.9865ZM43.6828 40.4492C44.4592 40.4492 44.967 41.0107 44.9914 41.8701H42.3059C42.3645 41.0156 42.9064 40.4492 43.6828 40.4492ZM47.4205 45H48.4703V41.8311C48.4703 41.084 49.0318 40.5713 49.8277 40.5713C50.0133 40.5713 50.3258 40.6055 50.4137 40.6299V39.6436C50.3014 39.6191 50.1012 39.6045 49.9449 39.6045C49.2516 39.6045 48.6607 39.9805 48.5094 40.5029H48.4312V39.6973H47.4205V45ZM52.9551 45.0879C53.6533 45.0879 54.2344 44.7852 54.5518 44.248H54.6348V45H55.6455V41.3721C55.6455 40.2588 54.8936 39.5947 53.5605 39.5947C52.3545 39.5947 51.4951 40.1758 51.3877 41.0693H52.4033C52.5205 40.6836 52.9258 40.4639 53.5117 40.4639C54.2295 40.4639 54.6006 40.791 54.6006 41.3721V41.8359L53.1602 41.9238C51.8955 42.002 51.1826 42.5537 51.1826 43.5059C51.1826 44.4727 51.9297 45.0879 52.9551 45.0879ZM53.2236 44.2432C52.6523 44.2432 52.2373 43.9551 52.2373 43.4619C52.2373 42.9785 52.5693 42.7197 53.3018 42.6709L54.6006 42.583V43.042C54.6006 43.7256 54.0146 44.2432 53.2236 44.2432Z" fill="#545458" fill-opacity="0.65"/>
<path fill-rule="evenodd" clip-rule="evenodd" d="M41.3562 8.52205C40.805 8.02507 40.0893 7.75 39.3471 7.75H35.2825C34.5406 7.75 33.825 8.02493 33.2739 8.52168L32.4762 9.24079C31.934 9.72952 31.2299 10 30.5 10C27.1863 10 24.5 12.6863 24.5 16V23.5C24.5 26.8137 27.1863 29.5 30.5 29.5H44C47.3137 29.5 50 26.8137 50 23.5V16C50 12.6863 47.3137 10 44 10L43.7854 9.99118C43.2163 9.94433 42.6759 9.71212 42.2489 9.32708L41.3562 8.52205ZM35.2825 8.95H39.3471C39.7924 8.95 40.2219 9.11504 40.5526 9.41323L41.4453 10.2183C42.0667 10.7786 42.8545 11.1186 43.687 11.1871L43.9507 11.199C46.651 11.2 48.8 13.349 48.8 16V23.5C48.8 26.151 46.651 28.3 44 28.3H30.5C27.849 28.3 25.7 26.151 25.7 23.5V16C25.7 13.4207 27.7344 11.3165 30.2862 11.2047L30.7362 11.1933C31.6777 11.1397 32.5757 10.7667 33.2796 10.1321L34.0774 9.41301C34.408 9.11496 34.8374 8.95 35.2825 8.95ZM37.25 13C40.4256 13 43 15.5744 43 18.75C43 21.9256 40.4256 24.5 37.25 24.5C34.0744 24.5 31.5 21.9256 31.5 18.75C31.5 15.5744 34.0744 13 37.25 13ZM32.7 18.75C32.7 16.2371 34.7371 14.2 37.25 14.2C39.7629 14.2 41.8 16.2371 41.8 18.75C41.8 21.2629 39.7629 23.3 37.25 23.3C34.7371 23.3 32.7 21.2629 32.7 18.75Z" fill="#545458" fill-opacity="0.65"/>
</g>
<defs>
<clipPath id="clip0_0_10595">
<rect width="75" height="49" fill="white"/>
</clipPath>
</defs>
</svg>
