<svg width="75" height="49" viewBox="0 0 75 49" fill="none" xmlns="http://www.w3.org/2000/svg">
<g clip-path="url(#clip0_0_10604)">
<path d="M48.0847 27.416C47.9341 27.6707 47.7465 27.9016 47.5282 28.1013C45.9741 29.5225 44.75 30.04 43.347 29.8308C40.4718 29.402 37.1313 27.5043 33.4089 23.9084L33.4028 23.9129L33.0942 23.6006L32.7823 23.2924C29.191 19.564 26.9942 16.3064 26.5655 13.4311C26.3563 12.0281 26.5989 10.5896 28.0201 9.03563C28.2198 8.81728 28.4507 8.62971 28.7054 8.47904C30.1296 7.63638 31.8188 7.89811 32.6614 9.3223L34.5535 12.5202C35.0169 13.3033 35.0207 14.2757 34.5636 15.0624L33.9846 16.0589C33.6982 16.5517 33.6277 17.3733 33.9846 17.8061L34.0723 17.9026C34.0723 17.9026 35.1305 19.1684 36.25 20.2756C37.3696 21.3828 38.598 22.3783 38.598 22.3783C39.001 22.7813 39.6091 22.8855 40.1189 22.6515L40.2346 22.5914L41.2311 22.0124C41.9653 21.5858 42.8893 21.4419 43.6422 21.8172L43.8013 21.9037L46.9992 23.7958C48.4234 24.6385 48.9274 25.9918 48.0847 27.416Z" fill="#007AFF"/>
<path d="M29.2482 45.1709C30.8205 45.1709 31.9777 44.2676 32.173 42.8955H31.0842C30.8889 43.6963 30.1809 44.1992 29.2482 44.1992C27.9787 44.1992 27.1877 43.1543 27.1877 41.4795C27.1877 39.8047 27.9787 38.7549 29.2434 38.7549C30.1711 38.7549 30.8791 39.3115 31.0842 40.1855H32.173C31.9973 38.7744 30.7961 37.7832 29.2434 37.7832C27.2854 37.7832 26.0695 39.1992 26.0695 41.4795C26.0695 43.7549 27.2902 45.1709 29.2482 45.1709ZM35.0611 45.0879C35.7594 45.0879 36.3404 44.7852 36.6578 44.248H36.7408V45H37.7516V41.3721C37.7516 40.2588 36.9996 39.5947 35.6666 39.5947C34.4605 39.5947 33.6012 40.1758 33.4938 41.0693H34.5094C34.6266 40.6836 35.0318 40.4639 35.6178 40.4639C36.3355 40.4639 36.7066 40.791 36.7066 41.3721V41.8359L35.2662 41.9238C34.0016 42.002 33.2887 42.5537 33.2887 43.5059C33.2887 44.4727 34.0357 45.0879 35.0611 45.0879ZM35.3297 44.2432C34.7584 44.2432 34.3434 43.9551 34.3434 43.4619C34.3434 42.9785 34.6754 42.7197 35.4078 42.6709L36.7066 42.583V43.042C36.7066 43.7256 36.1207 44.2432 35.3297 44.2432ZM39.3945 45H40.4443V37.6172H39.3945V45ZM42.1703 45H43.2201V37.6172H42.1703V45ZM44.7752 41.1816C44.7752 41.9678 45.2439 42.417 46.2547 42.6514L47.1824 42.8711C47.7146 42.998 47.9637 43.2129 47.9637 43.5449C47.9637 43.9795 47.4998 44.2822 46.8455 44.2822C46.2107 44.2822 45.8201 44.0234 45.6883 43.6084H44.6385C44.7313 44.5312 45.5564 45.1025 46.8211 45.1025C48.0906 45.1025 49.0232 44.4336 49.0232 43.4473C49.0232 42.6758 48.5496 42.2412 47.5389 42.0068L46.6551 41.8018C46.0789 41.665 45.8104 41.46 45.8104 41.1328C45.8104 40.7031 46.2547 40.415 46.8406 40.415C47.4363 40.415 47.8172 40.6738 47.9148 41.0693H48.9207C48.8182 40.1514 48.0369 39.5947 46.8406 39.5947C45.6395 39.5947 44.7752 40.2588 44.7752 41.1816Z" fill="#007AFF"/>
</g>
<defs>
<clipPath id="clip0_0_10604">
<rect width="75" height="49" fill="white"/>
</clipPath>
</defs>
</svg>
