<svg width="75" height="49" viewBox="0 0 75 49" fill="none" xmlns="http://www.w3.org/2000/svg">
<g clip-path="url(#clip0_0_10609)">
<path fill-rule="evenodd" clip-rule="evenodd" d="M46.2682 10.4505C43.9125 8.03659 40.6907 6.65002 37.2488 6.65002C33.8081 6.65002 30.5863 8.03659 28.2306 10.4505C27.9991 10.6876 28.0038 11.0675 28.2409 11.2989C28.4781 11.5304 28.858 11.5257 29.0894 11.2886C31.2215 9.1038 34.1348 7.85002 37.2488 7.85002L37.5951 7.85517C40.5788 7.94417 43.3562 9.18471 45.4094 11.2886C45.6408 11.5257 46.0207 11.5304 46.2579 11.2989C46.495 11.0675 46.4996 10.6876 46.2682 10.4505ZM46.25 19.25C46.25 14.2795 42.2206 10.25 37.25 10.25C32.2794 10.25 28.25 14.2795 28.25 19.25C28.25 24.2206 32.2794 28.25 37.25 28.25C42.2206 28.25 46.25 24.2206 46.25 19.25ZM25.1335 15.7817C25.2246 15.4631 25.5567 15.2786 25.8753 15.3697C26.1939 15.4607 26.3784 15.7928 26.2873 16.1114C25.9983 17.1232 25.85 18.1764 25.85 19.25C25.85 24.4612 29.3766 28.9714 34.3448 30.2767C34.6653 30.3609 34.8568 30.6889 34.7726 31.0094C34.6884 31.3299 34.3603 31.5215 34.0399 31.4373C28.5474 29.9943 24.65 25.0098 24.65 19.25C24.65 18.0646 24.8139 16.9004 25.1335 15.7817ZM48.6393 15.4126C48.9582 15.3228 49.2896 15.5085 49.3794 15.8275C49.6906 16.9322 49.85 18.0808 49.85 19.25C49.85 25.0508 45.8973 30.0613 40.3514 31.4653C40.0302 31.5466 39.7039 31.3521 39.6225 31.0309C39.5412 30.7097 39.7357 30.3833 40.0569 30.302C45.0734 29.0321 48.65 24.4983 48.65 19.25C48.65 18.1911 48.5058 17.1519 48.2244 16.1528C48.1346 15.8338 48.3203 15.5024 48.6393 15.4126ZM37.25 11.45C32.9422 11.45 29.45 14.9422 29.45 19.25C29.45 23.5578 32.9422 27.05 37.25 27.05C41.5578 27.05 45.05 23.5578 45.05 19.25C45.05 14.9422 41.5578 11.45 37.25 11.45Z" fill="#545458" fill-opacity="0.65"/>
<path d="M22.2109 43.1201C22.2891 44.3701 23.3389 45.1709 24.9014 45.1709C26.5713 45.1709 27.6162 44.3311 27.6162 42.998C27.6162 41.9434 27.0205 41.3623 25.5752 41.0156L24.7988 40.8252C23.8809 40.6006 23.5098 40.3076 23.5098 39.7949C23.5098 39.1357 24.0859 38.7109 24.9502 38.7109C25.7705 38.7109 26.3369 39.1211 26.4395 39.79H27.5039C27.4404 38.6133 26.3955 37.7832 24.9648 37.7832C23.4268 37.7832 22.4014 38.6133 22.4014 39.8535C22.4014 40.8789 22.9824 41.4844 24.2568 41.792L25.165 42.0117C26.0977 42.2363 26.5078 42.5781 26.5078 43.1299C26.5078 43.7744 25.8633 44.2383 24.9844 44.2383C24.042 44.2383 23.3877 43.8037 23.2949 43.1201H22.2109ZM29.4057 38.3594V39.7119H28.5609V40.5518H29.4057V43.6035C29.4057 44.624 29.8695 45.0342 31.0365 45.0342C31.2416 45.0342 31.4369 45.0098 31.6078 44.9805V44.1455C31.4613 44.1602 31.3686 44.1699 31.2074 44.1699C30.685 44.1699 30.4555 43.9209 30.4555 43.3496V40.5518H31.6078V39.7119H30.4555V38.3594H29.4057ZM34.4129 45.0879C35.1111 45.0879 35.6922 44.7852 36.0096 44.248H36.0926V45H37.1033V41.3721C37.1033 40.2588 36.3514 39.5947 35.0184 39.5947C33.8123 39.5947 32.9529 40.1758 32.8455 41.0693H33.8611C33.9783 40.6836 34.3836 40.4639 34.9695 40.4639C35.6873 40.4639 36.0584 40.791 36.0584 41.3721V41.8359L34.618 41.9238C33.3533 42.002 32.6404 42.5537 32.6404 43.5059C32.6404 44.4727 33.3875 45.0879 34.4129 45.0879ZM34.6814 44.2432C34.1102 44.2432 33.6951 43.9551 33.6951 43.4619C33.6951 42.9785 34.0271 42.7197 34.7596 42.6709L36.0584 42.583V43.042C36.0584 43.7256 35.4725 44.2432 34.6814 44.2432ZM39.0686 38.3594V39.7119H38.2238V40.5518H39.0686V43.6035C39.0686 44.624 39.5324 45.0342 40.6994 45.0342C40.9045 45.0342 41.0998 45.0098 41.2707 44.9805V44.1455C41.1242 44.1602 41.0314 44.1699 40.8703 44.1699C40.3479 44.1699 40.1184 43.9209 40.1184 43.3496V40.5518H41.2707V39.7119H40.1184V38.3594H39.0686ZM47.0885 39.6973H46.0387V42.8076C46.0387 43.6621 45.5748 44.1797 44.7252 44.1797C43.9537 44.1797 43.607 43.7598 43.607 42.8809V39.6973H42.5572V43.1396C42.5572 44.3848 43.2115 45.1025 44.3883 45.1025C45.1939 45.1025 45.7359 44.7607 45.9947 44.1602H46.0777V45H47.0885V39.6973ZM48.5898 41.1816C48.5898 41.9678 49.0586 42.417 50.0693 42.6514L50.9971 42.8711C51.5293 42.998 51.7783 43.2129 51.7783 43.5449C51.7783 43.9795 51.3145 44.2822 50.6602 44.2822C50.0254 44.2822 49.6348 44.0234 49.5029 43.6084H48.4531C48.5459 44.5312 49.3711 45.1025 50.6357 45.1025C51.9053 45.1025 52.8379 44.4336 52.8379 43.4473C52.8379 42.6758 52.3643 42.2412 51.3535 42.0068L50.4697 41.8018C49.8936 41.665 49.625 41.46 49.625 41.1328C49.625 40.7031 50.0693 40.415 50.6553 40.415C51.251 40.415 51.6318 40.6738 51.7295 41.0693H52.7354C52.6328 40.1514 51.8516 39.5947 50.6553 39.5947C49.4541 39.5947 48.5898 40.2588 48.5898 41.1816Z" fill="#545458" fill-opacity="0.65"/>
</g>
<defs>
<clipPath id="clip0_0_10609">
<rect width="75" height="49" fill="white"/>
</clipPath>
</defs>
</svg>
