<svg width="74" height="74" viewBox="0 0 74 74" fill="none" xmlns="http://www.w3.org/2000/svg">
<g clip-path="url(#clip0_0_8857)">
<rect width="74" height="74" fill="#3E70A7"/>
<path d="M20.3875 57H21.6795L18.0428 47.1357H16.826L13.1893 57H14.4813L15.4725 54.1768H19.3963L20.3875 57ZM17.3797 48.7285H17.4891L19.034 53.1309H15.8348L17.3797 48.7285ZM23.1086 57H24.2844V52.4336C24.2844 51.3945 25.0979 50.6426 26.2189 50.6426C26.4514 50.6426 26.8752 50.6836 26.9709 50.7109V49.5352C26.8205 49.5146 26.5744 49.501 26.383 49.501C25.4055 49.501 24.5578 50.0068 24.3391 50.7246H24.2297V49.6309H23.1086V57ZM34.1832 51.8867C33.9781 50.5742 32.8844 49.501 31.0934 49.501C29.0289 49.501 27.7164 50.9912 27.7164 53.2881C27.7164 55.6328 29.0357 57.1299 31.1002 57.1299C32.8707 57.1299 33.9713 56.1318 34.1832 54.7783H32.9938C32.775 55.6123 32.0846 56.0703 31.0934 56.0703C29.7809 56.0703 28.9332 54.9902 28.9332 53.2881C28.9332 51.6201 29.7672 50.5605 31.0934 50.5605C32.1529 50.5605 32.8023 51.1553 32.9938 51.8867H34.1832ZM35.8379 57H37.0137V52.6387C37.0137 51.3945 37.7383 50.5605 39.0576 50.5605C40.1719 50.5605 40.7598 51.21 40.7598 52.5156V57H41.9355V52.2285C41.9355 50.499 40.9512 49.501 39.3926 49.501C38.2646 49.501 37.4922 49.9795 37.123 50.793H37.0137V46.7051H35.8379V57ZM44.5473 48.209C44.9984 48.209 45.3676 47.8398 45.3676 47.3887C45.3676 46.9375 44.9984 46.5684 44.5473 46.5684C44.0961 46.5684 43.727 46.9375 43.727 47.3887C43.727 47.8398 44.0961 48.209 44.5473 48.209ZM43.9594 57H45.1352V49.6309H43.9594V57ZM53.243 49.6309H51.9852L49.9686 55.7012H49.8592L47.8426 49.6309H46.5848L49.3123 57H50.5154L53.243 49.6309ZM59.2727 55.0928C58.965 55.7422 58.3225 56.0908 57.3723 56.0908C56.1213 56.0908 55.3078 55.168 55.2463 53.7119V53.6572H60.5441V53.2061C60.5441 50.916 59.3342 49.501 57.3449 49.501C55.3215 49.501 54.0227 51.0049 54.0227 53.3223C54.0227 55.6533 55.301 57.1299 57.3449 57.1299C58.9582 57.1299 60.1066 56.3506 60.4484 55.0928H59.2727ZM57.3312 50.54C58.5002 50.54 59.2795 51.4014 59.3068 52.707H55.2463C55.3352 51.4014 56.1555 50.54 57.3312 50.54Z" fill="white"/>
<path fill-rule="evenodd" clip-rule="evenodd" d="M46.6 23.5V35.8C46.6 36.9046 45.7046 37.8 44.6 37.8H29.1C27.9954 37.8 27.1 36.9046 27.1 35.8V23.5H46.6ZM40.3 25.7H33.3C33.0545 25.7 32.8504 25.8769 32.8081 26.1101L32.8 26.2V27.7C32.8 27.9455 32.9769 28.1496 33.2101 28.1919L33.3 28.2H40.3C40.5455 28.2 40.7496 28.0231 40.7919 27.7899L40.8 27.7V26.2C40.8 25.9239 40.5761 25.7 40.3 25.7ZM45.2 17.5C46.3046 17.5 47.2 18.3954 47.2 19.5V22.5H26.5V19.5C26.5 18.3954 27.3954 17.5 28.5 17.5H45.2Z" fill="white"/>
</g>
<defs>
<clipPath id="clip0_0_8857">
<rect width="74" height="74" fill="white"/>
</clipPath>
</defs>
</svg>
