<svg width="74" height="74" viewBox="0 0 74 74" fill="none" xmlns="http://www.w3.org/2000/svg">
<g clip-path="url(#clip0_0_8865)">
<rect width="74" height="74" fill="#C6C6CC"/>
<path d="M31.3871 57V47.1357H29.9584L26.5814 55.3662H26.4721L23.0951 47.1357H21.6664V57H22.8148V49.4668H22.8969L26.0072 57H27.0463L30.1566 49.4668H30.2387V57H31.3871ZM36.6307 57.1299C38.7293 57.1299 40.0281 55.6807 40.0281 53.3154C40.0281 50.9434 38.7293 49.501 36.6307 49.501C34.532 49.501 33.2332 50.9434 33.2332 53.3154C33.2332 55.6807 34.532 57.1299 36.6307 57.1299ZM36.6307 56.0703C35.2361 56.0703 34.45 55.0586 34.45 53.3154C34.45 51.5654 35.2361 50.5605 36.6307 50.5605C38.0252 50.5605 38.8113 51.5654 38.8113 53.3154C38.8113 55.0586 38.0252 56.0703 36.6307 56.0703ZM41.7238 57H42.8996V52.4336C42.8996 51.3945 43.7131 50.6426 44.8342 50.6426C45.0666 50.6426 45.4904 50.6836 45.5861 50.7109V49.5352C45.4357 49.5146 45.1896 49.501 44.9982 49.501C44.0207 49.501 43.173 50.0068 42.9543 50.7246H42.8449V49.6309H41.7238V57ZM51.5816 55.0928C51.274 55.7422 50.6314 56.0908 49.6812 56.0908C48.4303 56.0908 47.6168 55.168 47.5553 53.7119V53.6572H52.8531V53.2061C52.8531 50.916 51.6432 49.501 49.6539 49.501C47.6305 49.501 46.3316 51.0049 46.3316 53.3223C46.3316 55.6533 47.61 57.1299 49.6539 57.1299C51.2672 57.1299 52.4156 56.3506 52.7574 55.0928H51.5816ZM49.6402 50.54C50.8092 50.54 51.5885 51.4014 51.6158 52.707H47.5553C47.6441 51.4014 48.4645 50.54 49.6402 50.54Z" fill="white"/>
<path fill-rule="evenodd" clip-rule="evenodd" d="M27.25 25C28.7688 25 30 26.2312 30 27.75C30 29.2688 28.7688 30.5 27.25 30.5C25.7312 30.5 24.5 29.2688 24.5 27.75C24.5 26.2312 25.7312 25 27.25 25ZM37 25C38.5188 25 39.75 26.2312 39.75 27.75C39.75 29.2688 38.5188 30.5 37 30.5C35.4812 30.5 34.25 29.2688 34.25 27.75C34.25 26.2312 35.4812 25 37 25ZM46.75 25C48.2688 25 49.5 26.2312 49.5 27.75C49.5 29.2688 48.2688 30.5 46.75 30.5C45.2312 30.5 44 29.2688 44 27.75C44 26.2312 45.2312 25 46.75 25Z" fill="white"/>
</g>
<defs>
<clipPath id="clip0_0_8865">
<rect width="74" height="74" fill="white"/>
</clipPath>
</defs>
</svg>
