<svg width="75" height="49" viewBox="0 0 75 49" fill="none" xmlns="http://www.w3.org/2000/svg">
<g clip-path="url(#clip0_0_8577)">
<path fill-rule="evenodd" clip-rule="evenodd" d="M47.38 27.7504C47.6059 27.5438 47.8 27.3049 47.9558 27.0414C48.8277 25.5679 48.3399 23.6667 46.8664 22.7948L43.5578 20.8372L43.3933 20.7477C42.6143 20.3594 41.6873 20.3854 40.9276 20.8268L39.8967 21.4259L39.7769 21.488C39.2495 21.7302 38.6204 21.6223 38.2034 21.2053L34.1244 17.1263L34.0336 17.0265C33.6644 16.5787 33.6075 15.9429 33.9038 15.433L34.5028 14.4021C34.9758 13.5881 34.9718 12.5821 34.4925 11.7719L32.5348 8.46326C31.663 6.98976 29.7618 6.50201 28.2883 7.37384C28.0248 7.52973 27.7859 7.72379 27.5793 7.9497C26.1088 9.5575 25.4506 11.0883 25.6671 12.5399C26.1106 15.5147 28.202 18.9125 31.9177 22.77L32.2404 23.0888L32.5597 23.4119L32.566 23.4073C36.4172 27.1277 39.815 29.2191 42.7898 29.6626C44.2414 29.8791 45.7722 29.2208 47.38 27.7504ZM46.5701 26.8649C45.1895 28.1276 43.9952 28.6291 42.9667 28.4757C40.3822 28.0904 37.3066 26.2444 33.7563 22.8852L33.1713 22.3236L32.7611 21.9164C29.2076 18.2267 27.2519 15.0318 26.8539 12.3629C26.7006 11.3345 27.2021 10.1402 28.4648 8.75955C28.5914 8.62109 28.7379 8.50215 28.8993 8.4066C29.8024 7.87226 30.9677 8.1712 31.5021 9.07431L33.4597 12.3829C33.7178 12.8192 33.72 13.3609 33.4653 13.7992L32.8663 14.8301C32.3189 15.7721 32.4178 16.9531 33.1078 17.7899L33.2362 17.9333L37.3548 22.0539C38.1252 22.8242 39.2921 23.0311 40.2777 22.5785L40.4492 22.4911L41.5305 21.8644C41.9382 21.6275 42.4374 21.612 42.858 21.8217L42.9842 21.8913L46.2554 23.8276C47.1585 24.362 47.4574 25.5272 46.9231 26.4303C46.8275 26.5918 46.7086 26.7383 46.5701 26.8649Z" fill="#545458" fill-opacity="0.65"/>
<path d="M29.2482 45.1709C30.8205 45.1709 31.9777 44.2676 32.173 42.8955H31.0842C30.8889 43.6963 30.1809 44.1992 29.2482 44.1992C27.9787 44.1992 27.1877 43.1543 27.1877 41.4795C27.1877 39.8047 27.9787 38.7549 29.2434 38.7549C30.1711 38.7549 30.8791 39.3115 31.0842 40.1855H32.173C31.9973 38.7744 30.7961 37.7832 29.2434 37.7832C27.2854 37.7832 26.0695 39.1992 26.0695 41.4795C26.0695 43.7549 27.2902 45.1709 29.2482 45.1709ZM35.0611 45.0879C35.7594 45.0879 36.3404 44.7852 36.6578 44.248H36.7408V45H37.7516V41.3721C37.7516 40.2588 36.9996 39.5947 35.6666 39.5947C34.4605 39.5947 33.6012 40.1758 33.4938 41.0693H34.5094C34.6266 40.6836 35.0318 40.4639 35.6178 40.4639C36.3355 40.4639 36.7066 40.791 36.7066 41.3721V41.8359L35.2662 41.9238C34.0016 42.002 33.2887 42.5537 33.2887 43.5059C33.2887 44.4727 34.0357 45.0879 35.0611 45.0879ZM35.3297 44.2432C34.7584 44.2432 34.3434 43.9551 34.3434 43.4619C34.3434 42.9785 34.6754 42.7197 35.4078 42.6709L36.7066 42.583V43.042C36.7066 43.7256 36.1207 44.2432 35.3297 44.2432ZM39.3945 45H40.4443V37.6172H39.3945V45ZM42.1703 45H43.2201V37.6172H42.1703V45ZM44.7752 41.1816C44.7752 41.9678 45.2439 42.417 46.2547 42.6514L47.1824 42.8711C47.7146 42.998 47.9637 43.2129 47.9637 43.5449C47.9637 43.9795 47.4998 44.2822 46.8455 44.2822C46.2107 44.2822 45.8201 44.0234 45.6883 43.6084H44.6385C44.7313 44.5312 45.5564 45.1025 46.8211 45.1025C48.0906 45.1025 49.0232 44.4336 49.0232 43.4473C49.0232 42.6758 48.5496 42.2412 47.5389 42.0068L46.6551 41.8018C46.0789 41.665 45.8104 41.46 45.8104 41.1328C45.8104 40.7031 46.2547 40.415 46.8406 40.415C47.4363 40.415 47.8172 40.6738 47.9148 41.0693H48.9207C48.8182 40.1514 48.0369 39.5947 46.8406 39.5947C45.6395 39.5947 44.7752 40.2588 44.7752 41.1816Z" fill="#545458" fill-opacity="0.65"/>
</g>
<defs>
<clipPath id="clip0_0_8577">
<rect width="75" height="49" fill="white"/>
</clipPath>
</defs>
</svg>
