<svg width="75" height="49" viewBox="0 0 75 49" fill="none" xmlns="http://www.w3.org/2000/svg">
<g clip-path="url(#clip0_0_10578)">
<path d="M17.609 43.1201C17.6871 44.3701 18.7369 45.1709 20.2994 45.1709C21.9693 45.1709 23.0143 44.3311 23.0143 42.998C23.0143 41.9434 22.4186 41.3623 20.9732 41.0156L20.1969 40.8252C19.2789 40.6006 18.9078 40.3076 18.9078 39.7949C18.9078 39.1357 19.484 38.7109 20.3482 38.7109C21.1686 38.7109 21.735 39.1211 21.8375 39.79H22.902C22.8385 38.6133 21.7936 37.7832 20.3629 37.7832C18.8248 37.7832 17.7994 38.6133 17.7994 39.8535C17.7994 40.8789 18.3805 41.4844 19.6549 41.792L20.5631 42.0117C21.4957 42.2363 21.9059 42.5781 21.9059 43.1299C21.9059 43.7744 21.2613 44.2383 20.3824 44.2383C19.44 44.2383 18.7857 43.8037 18.693 43.1201H17.609ZM27.9189 43.5791C27.7236 44.0088 27.2891 44.2432 26.6543 44.2432C25.8145 44.2432 25.2725 43.6377 25.2383 42.6758V42.627H28.9932V42.2656C28.9932 40.6055 28.0996 39.5947 26.6201 39.5947C25.1211 39.5947 24.1689 40.6738 24.1689 42.3584C24.1689 44.0527 25.1016 45.1025 26.625 45.1025C27.8408 45.1025 28.7002 44.5166 28.9297 43.5791H27.9189ZM26.6152 40.4492C27.3916 40.4492 27.8994 41.0107 27.9238 41.8701H25.2383C25.2969 41.0156 25.8389 40.4492 26.6152 40.4492ZM30.724 38.3594V39.7119H29.8793V40.5518H30.724V43.6035C30.724 44.624 31.1879 45.0342 32.3549 45.0342C32.56 45.0342 32.7553 45.0098 32.9262 44.9805V44.1455C32.7797 44.1602 32.6869 44.1699 32.5258 44.1699C32.0033 44.1699 31.7738 43.9209 31.7738 43.3496V40.5518H32.9262V39.7119H31.7738V38.3594H30.724ZM34.6521 38.3594V39.7119H33.8074V40.5518H34.6521V43.6035C34.6521 44.624 35.116 45.0342 36.283 45.0342C36.4881 45.0342 36.6834 45.0098 36.8543 44.9805V44.1455C36.7078 44.1602 36.615 44.1699 36.4539 44.1699C35.9314 44.1699 35.702 43.9209 35.702 43.3496V40.5518H36.8543V39.7119H35.702V38.3594H34.6521ZM38.7316 38.75C39.0979 38.75 39.3957 38.4521 39.3957 38.0908C39.3957 37.7246 39.0979 37.4268 38.7316 37.4268C38.3654 37.4268 38.0676 37.7246 38.0676 38.0908C38.0676 38.4521 38.3654 38.75 38.7316 38.75ZM38.2092 45H39.2541V39.6973H38.2092V45ZM40.8971 45H41.9469V41.8896C41.9469 41.0352 42.44 40.5078 43.2164 40.5078C43.9928 40.5078 44.3639 40.9375 44.3639 41.8164V45H45.4137V41.5674C45.4137 40.3027 44.7594 39.5947 43.5729 39.5947C42.7721 39.5947 42.2447 39.9512 41.9859 40.5371H41.9078V39.6973H40.8971V45ZM49.2344 47.0264C50.7383 47.0264 51.6904 46.2598 51.6904 45.0537V39.6973H50.6846V40.542H50.6016C50.3037 39.9658 49.6641 39.6045 48.9316 39.6045C47.5742 39.6045 46.7246 40.6738 46.7246 42.2803C46.7246 43.8721 47.5645 44.9219 48.9219 44.9219C49.6543 44.9219 50.2402 44.6045 50.5625 44.0283H50.6406V45.0488C50.6406 45.7666 50.123 46.1963 49.249 46.1963C48.541 46.1963 48.0967 45.9424 48.0088 45.542H46.9346C47.0469 46.4355 47.9062 47.0264 49.2344 47.0264ZM49.2197 44.0527C48.3164 44.0527 47.8086 43.3643 47.8086 42.2803C47.8086 41.1963 48.3164 40.5029 49.2197 40.5029C50.1133 40.5029 50.6602 41.1963 50.6602 42.2803C50.6602 43.3643 50.1182 44.0527 49.2197 44.0527ZM53.1918 41.1816C53.1918 41.9678 53.6605 42.417 54.6713 42.6514L55.599 42.8711C56.1312 42.998 56.3803 43.2129 56.3803 43.5449C56.3803 43.9795 55.9164 44.2822 55.2621 44.2822C54.6273 44.2822 54.2367 44.0234 54.1049 43.6084H53.0551C53.1479 44.5312 53.973 45.1025 55.2377 45.1025C56.5072 45.1025 57.4398 44.4336 57.4398 43.4473C57.4398 42.6758 56.9662 42.2412 55.9555 42.0068L55.0717 41.8018C54.4955 41.665 54.227 41.46 54.227 41.1328C54.227 40.7031 54.6713 40.415 55.2572 40.415C55.8529 40.415 56.2338 40.6738 56.3314 41.0693H57.3373C57.2348 40.1514 56.4535 39.5947 55.2572 39.5947C54.0561 39.5947 53.1918 40.2588 53.1918 41.1816Z" fill="#545458" fill-opacity="0.65"/>
<path fill-rule="evenodd" clip-rule="evenodd" d="M46.0444 11.5513L45.938 11.429L46.4509 11.0805L46.5325 10.9841C46.7621 10.654 46.7255 10.2236 46.451 9.94905C46.1386 9.63663 45.632 9.63663 45.3196 9.94905L44.788 10.276L44.6485 10.1546C44.0511 9.65553 43.4 9.21869 42.7052 8.85453L42.523 8.76301L42.7326 8.22774L42.7691 8.12002C42.8661 7.72592 42.6711 7.33251 42.3088 7.17874C41.9021 7.00611 41.4325 7.19586 41.2598 7.60256L41.039 8.15001L40.8843 8.09866C40.1515 7.86973 39.3858 7.71547 38.5964 7.64526L38.393 7.63101L38.4 7.00006L38.3915 6.8866C38.3268 6.48593 37.9936 6.20001 37.6 6.20001C37.1582 6.20001 36.8 6.55818 36.8 7.00001V7.63001L36.6022 7.64466C35.8105 7.71585 35.0431 7.87093 34.3097 8.10095L34.129 8.16001L33.9536 7.61213L33.9032 7.51015C33.6932 7.16289 33.277 7.02264 32.9122 7.17006C32.5025 7.33557 32.3046 7.80184 32.4701 8.21149L32.658 8.77101L32.489 8.85696C31.796 9.22126 31.1467 9.65736 30.5513 10.1557L30.416 10.272L29.9805 9.84908L29.8841 9.76756C29.554 9.53789 29.1236 9.57448 28.849 9.84905C28.5366 10.1615 28.5366 10.668 28.849 10.9804L29.284 11.402L29.1546 11.5515C28.6555 12.1489 28.2187 12.8 27.8545 13.4949L27.765 13.671L27.2277 13.4674L27.12 13.4309C26.7259 13.3339 26.3325 13.5289 26.1787 13.8912C26.0061 14.2979 26.1959 14.7676 26.6026 14.9402L27.153 15.15L27.0987 15.3156C26.8509 16.1089 26.6906 16.9407 26.6296 17.8H26.0001L25.8866 17.8085C25.4859 17.8732 25.2 18.2065 25.2 18.6C25.2 19.0418 25.5582 19.4 26 19.4L26.63 19.399L26.6445 19.5959C26.7154 20.3857 26.8697 21.1513 27.0986 21.8829L27.154 22.05L26.6026 22.2598L26.5015 22.312C26.1579 22.5281 26.025 22.9466 26.1787 23.3088C26.3514 23.7155 26.821 23.9053 27.2277 23.7326L27.765 23.528L27.8538 23.705C28.2186 24.4 28.6556 25.0511 29.155 25.648L29.278 25.789L28.8491 26.2196L28.7676 26.3159C28.5379 26.646 28.5745 27.0764 28.849 27.351C29.1615 27.6634 29.668 27.6634 29.9804 27.351L30.408 26.921L30.5515 27.0454C31.1489 27.5445 31.8 27.9813 32.4949 28.3455L32.678 28.437L32.4674 28.9723L32.4309 29.08C32.3339 29.4741 32.5289 29.8675 32.8912 30.0213C33.2979 30.1939 33.7676 30.0042 33.9402 29.5975L34.157 29.048L34.3156 29.1013C35.0482 29.3302 35.8137 29.4845 36.6034 29.5553L36.8 29.569V30.2L36.8085 30.3134C36.8732 30.7141 37.2065 31 37.6 31C38.0418 31 38.4 30.6418 38.4 30.2L38.399 29.569L38.597 29.5554C39.3889 29.4843 40.1566 29.3292 40.8902 29.0991L41.065 29.04L41.2464 29.5879L41.2968 29.6899C41.5069 30.0371 41.923 30.1774 42.2879 30.03C42.6975 29.8645 42.8954 29.3982 42.7299 28.9885L42.537 28.43L42.711 28.3431C43.404 27.9788 44.0533 27.5427 44.6487 27.0444L44.783 26.927L45.2196 27.3509L45.3159 27.4325C45.646 27.6621 46.0764 27.6255 46.351 27.351C46.6634 27.0386 46.6634 26.532 46.351 26.2196L45.915 25.798L46.0454 25.6485C46.5445 25.0511 46.9813 24.4 47.3455 23.7052L47.429 23.537L47.9723 23.7326L48.08 23.7691C48.4741 23.8661 48.8675 23.6711 49.0213 23.3088C49.1939 22.9021 49.0042 22.4325 48.5975 22.2598L48.044 22.054L48.0477 22.0512C48.3063 21.268 48.4792 20.4459 48.5553 19.5964L48.569 19.399L49.2 19.4L49.3134 19.3915C49.7141 19.3268 50 18.9936 50 18.6C50 18.1582 49.6418 17.8 49.2 17.8L48.569 17.799L48.5554 17.6022C48.4842 16.8105 48.3291 16.0431 48.0991 15.3097L48.048 15.156L48.5879 14.9536L48.6899 14.9032C49.0371 14.6932 49.1774 14.277 49.03 13.9122C48.8645 13.5025 48.3982 13.3046 47.9885 13.4701L47.431 13.663L47.3431 13.489C46.9788 12.796 46.5427 12.1467 46.0444 11.5513ZM37.6 8.80001C36.0289 8.80001 34.5442 9.1697 33.2281 9.82684L35.3852 13.5642C36.0628 13.2657 36.8121 13.1 37.6 13.1C40.4345 13.1 42.7682 15.2442 43.0676 17.9992H47.3819C47.0715 12.8666 42.8107 8.80001 37.6 8.80001ZM32.1891 10.4279C29.5439 12.1829 27.8 15.1878 27.8 18.6C27.8 22.0122 29.5439 25.0171 32.1891 26.7721L34.3472 23.0354C32.9845 22.0344 32.1 20.4205 32.1 18.6C32.1 16.7795 32.9845 15.1656 34.3472 14.1646L32.1891 10.4279ZM47.382 19.1998H43.0677C42.7688 21.9553 40.4349 24.1 37.6 24.1C36.8121 24.1 36.0628 23.9343 35.3852 23.6359L33.2281 27.3732C34.5442 28.0303 36.0289 28.4 37.6 28.4C42.811 28.4 47.072 24.3329 47.382 19.1998ZM33.3 18.6C33.3 16.2252 35.2252 14.3 37.6 14.3C39.9748 14.3 41.9 16.2252 41.9 18.6C41.9 20.9748 39.9748 22.9 37.6 22.9C35.2252 22.9 33.3 20.9748 33.3 18.6Z" fill="#545458" fill-opacity="0.65"/>
</g>
<defs>
<clipPath id="clip0_0_10578">
<rect width="75" height="49" fill="white"/>
</clipPath>
</defs>
</svg>
