<svg width="75" height="49" viewBox="0 0 75 49" fill="none" xmlns="http://www.w3.org/2000/svg">
<g clip-path="url(#clip0_0_10588)">
<path fill-rule="evenodd" clip-rule="evenodd" d="M34 9C35.4801 9 36.8976 9.2121 38.2067 9.60001L38.6079 9.7255C39.5317 9.53657 40.501 9.43605 41.5 9.43605C47.8513 9.43605 53 12.9265 53 18.5099C53 21.5259 51.6173 23.7296 48.852 25.121L48.4926 25.2964L48.4163 25.3391C47.282 26.0429 47.2327 27.0251 47.7664 27.9448L47.8428 28.0698L47.8998 28.1756C47.9647 28.3214 47.9845 28.4842 47.9551 28.6429C47.8819 29.0381 47.5278 29.3102 47.1372 29.2913L47.03 29.2788L46.7487 29.2199C45.4417 28.9137 44.2134 28.1745 43.0639 27.0022C41.482 27.1052 39.9452 26.9821 38.5145 26.6717L38.5486 26.66C36.671 27.2571 34.5611 27.5316 32.3681 27.3883C31.1699 28.6142 29.8896 29.3877 28.5274 29.7087L28.2342 29.7706C27.783 29.8548 27.3489 29.5573 27.2647 29.106C27.2337 28.9399 27.2542 28.7694 27.3219 28.6167L27.3814 28.5059C28.0204 27.5064 28.0204 26.4176 26.783 25.6474L26.7034 25.6027L26.6217 25.5619C23.5406 24.1153 22 21.7609 22 18.4985C22 12.6538 27.3726 9 34 9ZM34 10.2C27.7009 10.2 23.2 13.6075 23.2 18.4985C23.2 21.2892 24.4661 23.2242 27.1579 24.4883L27.2907 24.5562L27.4172 24.6286C28.8499 25.5205 29.2919 26.8878 28.8554 28.2098L28.7935 28.382L29.0728 28.2751C29.9083 27.9293 30.7197 27.3581 31.51 26.5495L31.8957 26.1549L32.4464 26.1909C39.1161 26.6266 44.8 22.928 44.8 18.4985C44.8 13.985 40.0181 10.2 34 10.2ZM40.7712 10.6555C41.0118 10.6426 41.2548 10.6361 41.5 10.6361C47.5121 10.6361 51.8 13.872 51.8 18.5099C51.8 21.1538 50.5991 22.9834 48.036 24.1832L47.9067 24.2491L47.7835 24.3195L47.5991 24.4405C46.4092 25.2661 46.0145 26.4609 46.3524 27.6682L46.4058 27.8411L46.1182 27.7195L45.8323 27.5822C45.1676 27.2432 44.5207 26.774 43.9207 26.162L43.5352 25.769L42.9859 25.8048L42.5201 25.8282C41.9016 25.8501 41.2932 25.8349 40.6993 25.7852L41.0009 25.6278C44.0177 24.0049 46 21.4273 46 18.4985C46 15.2411 43.9284 12.3666 40.7712 10.6555ZM40.7712 10.6555C40.7608 10.6499 40.7503 10.6442 40.7399 10.6386L40.771 10.6555C40.771 10.6555 40.7711 10.6555 40.7712 10.6555Z" fill="#979797"/>
<path d="M27.007 45.1709C28.5793 45.1709 29.7365 44.2676 29.9318 42.8955H28.843C28.6477 43.6963 27.9396 44.1992 27.007 44.1992C25.7375 44.1992 24.9465 43.1543 24.9465 41.4795C24.9465 39.8047 25.7375 38.7549 27.0021 38.7549C27.9299 38.7549 28.6379 39.3115 28.843 40.1855H29.9318C29.7561 38.7744 28.5549 37.7832 27.0021 37.7832C25.0441 37.7832 23.8283 39.1992 23.8283 41.4795C23.8283 43.7549 25.049 45.1709 27.007 45.1709ZM31.399 45H32.4488V41.8945C32.4488 41.0645 32.9273 40.5127 33.7867 40.5127C34.5289 40.5127 34.9244 40.9473 34.9244 41.8213V45H35.9742V41.5723C35.9742 40.3174 35.276 39.5996 34.1432 39.5996C33.3424 39.5996 32.7809 39.9512 32.5221 40.542H32.4391V37.6172H31.399V45ZM39.0234 45.0879C39.7217 45.0879 40.3027 44.7852 40.6201 44.248H40.7031V45H41.7139V41.3721C41.7139 40.2588 40.9619 39.5947 39.6289 39.5947C38.4229 39.5947 37.5635 40.1758 37.4561 41.0693H38.4717C38.5889 40.6836 38.9941 40.4639 39.5801 40.4639C40.2979 40.4639 40.6689 40.791 40.6689 41.3721V41.8359L39.2285 41.9238C37.9639 42.002 37.251 42.5537 37.251 43.5059C37.251 44.4727 37.998 45.0879 39.0234 45.0879ZM39.292 44.2432C38.7207 44.2432 38.3057 43.9551 38.3057 43.4619C38.3057 42.9785 38.6377 42.7197 39.3701 42.6709L40.6689 42.583V43.042C40.6689 43.7256 40.083 44.2432 39.292 44.2432ZM43.6791 38.3594V39.7119H42.8344V40.5518H43.6791V43.6035C43.6791 44.624 44.143 45.0342 45.31 45.0342C45.515 45.0342 45.7104 45.0098 45.8812 44.9805V44.1455C45.7348 44.1602 45.642 44.1699 45.4809 44.1699C44.9584 44.1699 44.7289 43.9209 44.7289 43.3496V40.5518H45.8812V39.7119H44.7289V38.3594H43.6791ZM47.0164 41.1816C47.0164 41.9678 47.4852 42.417 48.4959 42.6514L49.4236 42.8711C49.9559 42.998 50.2049 43.2129 50.2049 43.5449C50.2049 43.9795 49.741 44.2822 49.0867 44.2822C48.452 44.2822 48.0613 44.0234 47.9295 43.6084H46.8797C46.9725 44.5312 47.7977 45.1025 49.0623 45.1025C50.3318 45.1025 51.2645 44.4336 51.2645 43.4473C51.2645 42.6758 50.7908 42.2412 49.7801 42.0068L48.8963 41.8018C48.3201 41.665 48.0516 41.46 48.0516 41.1328C48.0516 40.7031 48.4959 40.415 49.0818 40.415C49.6775 40.415 50.0584 40.6738 50.1561 41.0693H51.1619C51.0594 40.1514 50.2781 39.5947 49.0818 39.5947C47.8807 39.5947 47.0164 40.2588 47.0164 41.1816Z" fill="#545458" fill-opacity="0.65"/>
</g>
<defs>
<clipPath id="clip0_0_10588">
<rect width="75" height="49" fill="white"/>
</clipPath>
</defs>
</svg>
