<svg width="75" height="49" viewBox="0 0 75 49" fill="none" xmlns="http://www.w3.org/2000/svg">
<g clip-path="url(#clip0_0_9303)">
<path d="M17.609 43.1201C17.6871 44.3701 18.7369 45.1709 20.2994 45.1709C21.9693 45.1709 23.0143 44.3311 23.0143 42.998C23.0143 41.9434 22.4186 41.3623 20.9732 41.0156L20.1969 40.8252C19.2789 40.6006 18.9078 40.3076 18.9078 39.7949C18.9078 39.1357 19.484 38.7109 20.3482 38.7109C21.1686 38.7109 21.735 39.1211 21.8375 39.79H22.902C22.8385 38.6133 21.7936 37.7832 20.3629 37.7832C18.8248 37.7832 17.7994 38.6133 17.7994 39.8535C17.7994 40.8789 18.3805 41.4844 19.6549 41.792L20.5631 42.0117C21.4957 42.2363 21.9059 42.5781 21.9059 43.1299C21.9059 43.7744 21.2613 44.2383 20.3824 44.2383C19.44 44.2383 18.7857 43.8037 18.693 43.1201H17.609ZM27.9189 43.5791C27.7236 44.0088 27.2891 44.2432 26.6543 44.2432C25.8145 44.2432 25.2725 43.6377 25.2383 42.6758V42.627H28.9932V42.2656C28.9932 40.6055 28.0996 39.5947 26.6201 39.5947C25.1211 39.5947 24.1689 40.6738 24.1689 42.3584C24.1689 44.0527 25.1016 45.1025 26.625 45.1025C27.8408 45.1025 28.7002 44.5166 28.9297 43.5791H27.9189ZM26.6152 40.4492C27.3916 40.4492 27.8994 41.0107 27.9238 41.8701H25.2383C25.2969 41.0156 25.8389 40.4492 26.6152 40.4492ZM30.724 38.3594V39.7119H29.8793V40.5518H30.724V43.6035C30.724 44.624 31.1879 45.0342 32.3549 45.0342C32.56 45.0342 32.7553 45.0098 32.9262 44.9805V44.1455C32.7797 44.1602 32.6869 44.1699 32.5258 44.1699C32.0033 44.1699 31.7738 43.9209 31.7738 43.3496V40.5518H32.9262V39.7119H31.7738V38.3594H30.724ZM34.6521 38.3594V39.7119H33.8074V40.5518H34.6521V43.6035C34.6521 44.624 35.116 45.0342 36.283 45.0342C36.4881 45.0342 36.6834 45.0098 36.8543 44.9805V44.1455C36.7078 44.1602 36.615 44.1699 36.4539 44.1699C35.9314 44.1699 35.702 43.9209 35.702 43.3496V40.5518H36.8543V39.7119H35.702V38.3594H34.6521ZM38.7316 38.75C39.0979 38.75 39.3957 38.4521 39.3957 38.0908C39.3957 37.7246 39.0979 37.4268 38.7316 37.4268C38.3654 37.4268 38.0676 37.7246 38.0676 38.0908C38.0676 38.4521 38.3654 38.75 38.7316 38.75ZM38.2092 45H39.2541V39.6973H38.2092V45ZM40.8971 45H41.9469V41.8896C41.9469 41.0352 42.44 40.5078 43.2164 40.5078C43.9928 40.5078 44.3639 40.9375 44.3639 41.8164V45H45.4137V41.5674C45.4137 40.3027 44.7594 39.5947 43.5729 39.5947C42.7721 39.5947 42.2447 39.9512 41.9859 40.5371H41.9078V39.6973H40.8971V45ZM49.2344 47.0264C50.7383 47.0264 51.6904 46.2598 51.6904 45.0537V39.6973H50.6846V40.542H50.6016C50.3037 39.9658 49.6641 39.6045 48.9316 39.6045C47.5742 39.6045 46.7246 40.6738 46.7246 42.2803C46.7246 43.8721 47.5645 44.9219 48.9219 44.9219C49.6543 44.9219 50.2402 44.6045 50.5625 44.0283H50.6406V45.0488C50.6406 45.7666 50.123 46.1963 49.249 46.1963C48.541 46.1963 48.0967 45.9424 48.0088 45.542H46.9346C47.0469 46.4355 47.9062 47.0264 49.2344 47.0264ZM49.2197 44.0527C48.3164 44.0527 47.8086 43.3643 47.8086 42.2803C47.8086 41.1963 48.3164 40.5029 49.2197 40.5029C50.1133 40.5029 50.6602 41.1963 50.6602 42.2803C50.6602 43.3643 50.1182 44.0527 49.2197 44.0527ZM53.1918 41.1816C53.1918 41.9678 53.6605 42.417 54.6713 42.6514L55.599 42.8711C56.1312 42.998 56.3803 43.2129 56.3803 43.5449C56.3803 43.9795 55.9164 44.2822 55.2621 44.2822C54.6273 44.2822 54.2367 44.0234 54.1049 43.6084H53.0551C53.1479 44.5312 53.973 45.1025 55.2377 45.1025C56.5072 45.1025 57.4398 44.4336 57.4398 43.4473C57.4398 42.6758 56.9662 42.2412 55.9555 42.0068L55.0717 41.8018C54.4955 41.665 54.227 41.46 54.227 41.1328C54.227 40.7031 54.6713 40.415 55.2572 40.415C55.8529 40.415 56.2338 40.6738 56.3314 41.0693H57.3373C57.2348 40.1514 56.4535 39.5947 55.2572 39.5947C54.0561 39.5947 53.1918 40.2588 53.1918 41.1816Z" fill="#007AFF"/>
<path fill-rule="evenodd" clip-rule="evenodd" d="M46.0444 11.5512L45.938 11.429L46.4509 11.0804L46.5325 10.9841C46.7621 10.654 46.7255 10.2235 46.451 9.94898C46.1385 9.63656 45.632 9.63656 45.3196 9.94898L44.788 10.276L44.6485 10.1546C44.0511 9.65546 43.4 9.21863 42.7051 8.85447L42.523 8.76295L42.7326 8.22768L42.7691 8.11995C42.8661 7.72586 42.6711 7.33245 42.3088 7.17868C41.9021 7.00604 41.4325 7.19579 41.2598 7.6025L41.039 8.14995L40.8842 8.0986C40.1514 7.86967 39.3858 7.71541 38.5964 7.6452L38.393 7.63095L38.4 7L38.3915 6.88654C38.3268 6.48587 37.9935 6.19995 37.6 6.19995C37.1582 6.19995 36.8 6.55812 36.8 6.99995V7.62995L36.6021 7.6446C35.8105 7.71579 35.0431 7.87087 34.3097 8.10089L34.129 8.15995L33.9536 7.61207L33.9032 7.51009C33.6931 7.16283 33.277 7.02257 32.9121 7.17C32.5025 7.33551 32.3046 7.80177 32.4701 8.21143L32.658 8.77095L32.489 8.8569C31.796 9.22119 31.1467 9.6573 30.5513 10.1556L30.416 10.272L29.9804 9.84902L29.8841 9.7675C29.554 9.53782 29.1236 9.57442 28.849 9.84898C28.5366 10.1614 28.5366 10.6679 28.849 10.9804L29.284 11.402L29.1546 11.5514C28.6555 12.1488 28.2187 12.8 27.8545 13.4948L27.765 13.671L27.2277 13.4673L27.12 13.4308C26.7259 13.3338 26.3325 13.5289 26.1787 13.8911C26.0061 14.2978 26.1958 14.7675 26.6025 14.9401L27.153 15.15L27.0987 15.3156C26.8509 16.1088 26.6905 16.9406 26.6296 17.8H26L25.8866 17.8085C25.4859 17.8731 25.2 18.2064 25.2 18.6C25.2 19.0418 25.5582 19.4 26 19.4L26.63 19.399L26.6445 19.5958C26.7153 20.3856 26.8697 21.1512 27.0986 21.8829L27.154 22.05L26.6026 22.2597L26.5015 22.3119C26.1579 22.528 26.025 22.9465 26.1787 23.3088C26.3514 23.7155 26.821 23.9052 27.2277 23.7326L27.765 23.528L27.8538 23.7049C28.2186 24.3999 28.6556 25.051 29.155 25.6479L29.278 25.789L28.8491 26.2195L28.7675 26.3158C28.5379 26.6459 28.5745 27.0764 28.849 27.3509C29.1614 27.6633 29.668 27.6633 29.9804 27.3509L30.408 26.921L30.5515 27.0453C31.1489 27.5444 31.8 27.9813 32.4949 28.3454L32.678 28.437L32.4674 28.9722L32.4309 29.0799C32.3339 29.474 32.5289 29.8675 32.8912 30.0212C33.2979 30.1939 33.7675 30.0041 33.9402 29.5974L34.157 29.048L34.3156 29.1013C35.0482 29.3301 35.8137 29.4845 36.6034 29.5552L36.8 29.569V30.1999L36.8085 30.3134C36.8732 30.714 37.2065 31 37.6 31C38.0418 31 38.4 30.6418 38.4 30.2L38.399 29.569L38.597 29.5554C39.3889 29.4842 40.1566 29.3291 40.8902 29.0991L41.065 29.04L41.2464 29.5878L41.2968 29.6898C41.5068 30.0371 41.923 30.1773 42.2878 30.0299C42.6975 29.8644 42.8954 29.3981 42.7299 28.9885L42.537 28.43L42.711 28.343C43.404 27.9787 44.0533 27.5426 44.6487 27.0443L44.783 26.927L45.2196 27.3509L45.3159 27.4324C45.646 27.6621 46.0764 27.6255 46.351 27.3509C46.6634 27.0385 46.6634 26.532 46.351 26.2195L45.915 25.798L46.0454 25.6485C46.5445 25.0511 46.9813 24.3999 47.3455 23.7051L47.429 23.537L47.9723 23.7326L48.08 23.7691C48.4741 23.8661 48.8675 23.671 49.0213 23.3088C49.1939 22.9021 49.0042 22.4324 48.5974 22.2598L48.044 22.054L48.0477 22.0512C48.3063 21.268 48.4792 20.4459 48.5553 19.5963L48.569 19.399L49.2 19.4L49.3134 19.3914C49.7141 19.3268 50 18.9935 50 18.6C50 18.1581 49.6418 17.8 49.2 17.8L48.569 17.799L48.5553 17.6021C48.4842 16.8104 48.3291 16.043 48.0991 15.3097L48.048 15.156L48.5879 14.9535L48.6899 14.9032C49.0371 14.6931 49.1774 14.277 49.03 13.9121C48.8644 13.5024 48.3982 13.3045 47.9885 13.47L47.431 13.663L47.343 13.489C46.9788 12.796 46.5426 12.1467 46.0444 11.5512ZM37.3625 8.80277L37.6 8.79995L38.0012 8.80801L38.3983 8.832L38.9684 8.89473L39.234 8.93555L39.4999 8.98379C43.9997 9.86474 47.4 13.8353 47.4 18.6L47.3943 18.9373L47.374 19.3186L47.3481 19.6147L47.306 19.9629L47.2415 20.3649C47.1931 20.631 47.1339 20.8934 47.0645 21.1516L46.9484 21.5493L46.8838 21.747L46.7783 22.0425C45.604 25.1717 42.8754 27.5408 39.5328 28.2094L39.234 28.2643L39.05 28.2934L38.6428 28.3451L38.5106 28.3582L38.1938 28.3823L37.8743 28.3962L37.6 28.4L37.0065 28.3823L36.7828 28.3664L36.3991 28.3271L35.943 28.2605L35.7463 28.2249L35.3452 28.1393C34.8144 28.0143 34.3003 27.8462 33.8067 27.6388L33.3967 27.4553L33.0687 27.2917L32.801 27.1465L32.6142 27.0387L32.3618 26.884L32.1473 26.7441L31.8505 26.537C30.387 25.475 29.2286 24.0181 28.5318 22.3227L28.383 21.9375L28.3162 21.747L28.2357 21.4986L28.1539 21.2192C28.1021 21.0319 28.0557 20.8423 28.0149 20.6506L27.9282 20.189L27.906 20.0462L27.8867 19.909L27.8388 19.4779C27.8131 19.1887 27.8 18.8959 27.8 18.6C27.8 17.6948 27.9227 16.8182 28.1524 15.9861L28.2728 15.5843L28.3604 15.3253L28.4978 14.9611C28.979 13.7584 29.6917 12.6734 30.5808 11.7611L30.864 11.4819L31.232 11.1507C31.4259 10.9848 31.6263 10.8263 31.8329 10.6757L32.1891 10.4279L32.3618 10.3159L32.692 10.1157L32.9491 9.97172L33.2281 9.82678L33.5728 9.66298C33.8051 9.55814 34.0423 9.46209 34.2838 9.37526L34.6573 9.24945L34.8584 9.1886L35.1071 9.11984L35.4431 9.03808L35.7463 8.97502L36.0938 8.91498L36.3399 8.88021L36.6249 8.84785L36.8405 8.82895L37.3625 8.80277ZM43.0677 19.1998L46.3799 19.1994C46.0717 23.78 42.2586 27.4 37.6 27.4C36.3376 27.4 35.1373 27.1341 34.0521 26.6555L33.73 26.5055L35.3852 23.6358C36.0628 23.9343 36.8121 24.1 37.6 24.1C40.3561 24.1 42.6387 22.0727 43.0381 19.4279L43.0677 19.1998ZM34.3472 14.1645L32.6907 11.2955L32.4508 11.4629C30.2392 13.0614 28.8 15.6626 28.8 18.6C28.8 21.6422 30.3438 24.3239 32.6907 25.9044L34.3472 23.0354L34.1558 22.8883C32.9022 21.8802 32.1 20.3337 32.1 18.6C32.1 16.7795 32.9845 15.1656 34.3472 14.1645ZM37.6 14.3C39.9748 14.3 41.9 16.2251 41.9 18.6C41.9 20.9748 39.9748 22.9 37.6 22.9C35.2252 22.9 33.3 20.9748 33.3 18.6C33.3 16.2251 35.2252 14.3 37.6 14.3ZM46.3586 17.7413C45.927 13.2841 42.1704 9.79995 37.6 9.79995C36.2114 9.79995 34.8979 10.1216 33.73 10.6944L35.3852 13.5641L35.6426 13.4585C36.2507 13.2268 36.9105 13.1 37.6 13.1C40.4345 13.1 42.7682 15.2442 43.0676 17.9991L46.3798 17.9995L46.3586 17.7413Z" fill="#007AFF"/>
</g>
<defs>
<clipPath id="clip0_0_9303">
<rect width="75" height="49" fill="white"/>
</clipPath>
</defs>
</svg>
